<svg xmlns="http://www.w3.org/2000/svg" width="16" height="15" fill="none" viewBox="0 0 16 15"><path fill="#000" d="M5.8 10q.5 0 .5-.5T5.8 9t-.5.5.5.5"/><path fill="#000" d="M15 2h-2V0h-1v2H4V0H3v2H1Q0 2 0 3v11q0 .9 1 1h14q.9-.1 1-1V3q-.1-1-1-1m0 12H1V7h14zM1 6V3h2v2h1V3h8v2h1V3h2v3z"/><path fill="#000" d="M8 10q.5 0 .5-.5T8 9t-.5.5.5.5M10.3 10q.4 0 .4-.5t-.4-.5-.6.5.6.5M5.8 11q-.5 0-.5.5t.5.5.5-.5-.5-.5M3.5 10q.5 0 .5-.5T3.5 9t-.5.5.5.5M3.5 11q-.5 0-.5.5t.5.5.5-.5-.5-.5M8 11q-.5 0-.5.5t.5.5.5-.5T8 11M10.3 11q-.6 0-.6.5t.6.5.4-.5-.4-.5M12.5 10q.5 0 .5-.5t-.5-.5-.5.5.5.5M12.5 11q-.5 0-.5.5t.5.5.5-.5-.5-.5"/></svg>